<svg width="512" height="512" viewBox="0 0 512 512" fill="none" xmlns="http://www.w3.org/2000/svg">
<rect width="512" height="512" rx="128" fill="#080B0F"/>
<path d="M215.05 110.4C218.869 110.4 223.839 111.336 229.778 112.999C235.747 114.67 241.708 116.696 247.662 119.077C253.815 121.445 259.218 123.957 263.843 126.625C266.241 127.829 268.269 129.024 269.82 130.222C271.255 131.33 272.895 132.899 273.496 135.002L273.768 135.95L273.566 136.916C272.461 142.222 271.54 150.503 270.843 161.894L270.842 161.9C270.148 173.006 269.8 184.938 269.8 197.7C269.8 223.035 270.73 247.901 272.589 272.296C274.21 291.003 277.375 310.006 282.09 329.308C284.812 316.235 287.647 303.219 290.6 290.261L290.604 290.244L290.608 290.226C295.052 271.515 299.615 253.732 304.296 236.879C308.975 219.803 313.656 204 318.343 189.472C323.027 174.951 327.487 162.27 331.725 151.442L331.733 151.421L331.741 151.401C336.211 140.343 340.391 131.594 344.293 125.253C346.239 121.976 348.203 119.265 350.209 117.259C352.188 115.28 354.532 113.664 357.242 113.247L357.905 113.144L358.565 113.264C361.622 113.82 364.79 115.031 368.047 116.775C371.304 118.289 374.423 120.167 377.4 122.4L377.96 122.825C380.744 124.964 383.312 127.327 385.66 129.91C388.169 132.669 390.234 135.492 391.812 138.384L393.958 142.319L389.806 144.005C383.43 146.596 376.519 152.934 369.229 163.869C362.165 174.813 355.28 188.227 348.588 204.15C342.114 219.875 335.977 237.007 330.182 255.549L329.142 259.035C323.978 276.447 319.327 293.651 315.187 310.647C311.007 328.531 307.644 345.117 305.096 360.408C302.865 375.139 301.622 386.959 301.33 395.923L305.055 399.648L298.915 401.695C297.716 402.095 296.455 402.25 295.2 402.25H293.1C282.025 402.25 272.018 400.806 263.135 397.844H263.134C254.53 395.129 248.018 390.931 244.757 384.706L244.535 384.283L244.419 383.82C239.499 364.141 235.397 345.153 232.113 326.857C228.835 308.592 226.025 290.325 223.683 272.058L223.68 272.034L223.677 272.008C221.571 253.756 219.815 235.388 218.411 216.903L218.409 216.877L218.408 216.849C217.515 202.551 216.758 187.778 216.138 172.53C213.918 176.939 211.63 181.884 209.276 187.376L209.265 187.403C204.414 198.49 199.669 210.755 195.031 224.204C190.385 237.678 185.853 251.856 181.435 266.739C177.257 281.594 173.546 296.096 170.299 310.245C167.053 324.385 164.507 337.812 162.658 350.526L162.657 350.536C160.81 363.006 159.9 373.769 159.9 382.85V393.11C160.113 394.939 160.409 396.327 160.745 397.336L163.177 404.631L155.807 402.433C142.496 398.463 132.832 394.439 127.501 390.173H127.5C121.804 385.855 119 379.749 119 372.35C119 364.836 120.736 354.644 124.028 341.946C127.321 329.011 131.546 314.695 136.699 299.003L136.708 298.976L136.717 298.952C142.106 283.253 148.195 266.859 154.982 249.773C161.769 232.69 168.674 216.305 175.699 200.616C182.722 184.933 189.516 170.637 196.085 157.735L196.092 157.723L196.098 157.711C202.497 145.353 208.227 135.475 213.285 128.145L211.104 115.057L210.328 110.4H215.05Z" fill="#DADEE5" stroke="#DADEE5" stroke-width="8"/>
</svg>
